# xmcd
#
# Track frame offsets: 
#        183
#        16163
#        29098
#        40240
#        53125
#        67550
#        90345
#        108048
#        120850
#        133053
#        146793
#        162805
#        178065
#        187775
#        203373
#        218505
#        231465
#        245610
#
# Disc length: 3508 seconds
#
# Revision: 4
# Processed by: cddbd v1.5.2PL0 Copyright (c) Steve Scherf et al.
# Submitted via: ExactAudioCopy v0.99pb5
#
DISCID=e30db212
DTITLE=Various Artist - Gefühle - Die schönsten romantischen Schlager - Vol. 
DTITLE=03
DYEAR=1900
DGENRE=Pop
TTITLE0=Flippers - Sha la la, I love you  
TTITLE1=Jürgen Marcus - Nur du  
TTITLE2=Gitte - Dann kamst du  
TTITLE3=Roy Black - Für dich allein  
TTITLE4=Daisy Door - Du lebst in deiner Welt  
TTITLE5=Ricky Shayne - Mamy Blue  
TTITLE6=Ulli Martin - Monika  
TTITLE7=Gigliola Cinquetti - Romantico Blues  
TTITLE8=Rex Gildo - Sommerblau  
TTITLE9=Karel Gott - Einmal um die ganze Welt  
TTITLE10=Katja Ebstein - Wunder gibt es immer wieder  
TTITLE11=Adamo - Ich muss wieder lernen die Rosen zu sehen 
TTITLE12=Joe Dassin - Es gibt Mädchen so zum Träumen 
TTITLE13=Danyel Gerard - Butterfly  
TTITLE14=Daliah Lavi - Oh, wann kommst du 
TTITLE15=Gerhard Wendland - Alle Frauen dieser Welt 
TTITLE16=Manuela - Alles und noch viel mehr 
TTITLE17=Michael Schanze - Ich hab dich lieb
EXTD=
EXTT0=
EXTT1=
EXTT2=
EXTT3=
EXTT4=
EXTT5=
EXTT6=
EXTT7=
EXTT8=
EXTT9=
EXTT10=
EXTT11=
EXTT12=
EXTT13=
EXTT14=
EXTT15=
EXTT16=
EXTT17=
PLAYORDER=
